<mxfile host="drawio-plugin" modified="2023-08-01T15:43:58.130Z" agent="5.0 (Windows NT 10.0; Win64; x64) AppleWebKit/537.36 (KHTML, like Gecko) Chrome/111.0.0.0 Safari/537.36" etag="DDkh3Y_M4CSvoZp8426D" version="20.5.3" type="embed"><diagram name="Trang-1" id="Ebna3bX2qkDWf6leMWD_"><mxGraphModel dx="328" dy="1714" grid="1" gridSize="10" guides="1" tooltips="1" connect="1" arrows="1" fold="1" page="1" pageScale="1" pageWidth="827" pageHeight="1169" math="0" shadow="0"><root><mxCell id="0"/><mxCell id="1" parent="0"/><mxCell id="URbUOaUxVpcEx-OwuukD-1" value="role" style="swimlane;fontStyle=0;childLayout=stackLayout;horizontal=1;startSize=26;fillColor=none;horizontalStack=0;resizeParent=1;resizeParentMax=0;resizeLast=0;collapsible=1;marginBottom=0;whiteSpace=wrap;html=1;" parent="1" vertex="1"><mxGeometry x="24" y="80" width="140" height="78" as="geometry"/></mxCell><mxCell id="URbUOaUxVpcEx-OwuukD-2" value="roleId" style="text;strokeColor=none;fillColor=none;align=left;verticalAlign=top;spacingLeft=4;spacingRight=4;overflow=hidden;rotatable=0;points=[[0,0.5],[1,0.5]];portConstraint=eastwest;whiteSpace=wrap;html=1;" parent="URbUOaUxVpcEx-OwuukD-1" vertex="1"><mxGeometry y="26" width="140" height="26" as="geometry"/></mxCell><mxCell id="URbUOaUxVpcEx-OwuukD-3" value="roleName" style="text;strokeColor=none;fillColor=none;align=left;verticalAlign=top;spacingLeft=4;spacingRight=4;overflow=hidden;rotatable=0;points=[[0,0.5],[1,0.5]];portConstraint=eastwest;whiteSpace=wrap;html=1;" parent="URbUOaUxVpcEx-OwuukD-1" vertex="1"><mxGeometry y="52" width="140" height="26" as="geometry"/></mxCell><mxCell id="URbUOaUxVpcEx-OwuukD-6" value="user" style="swimlane;fontStyle=0;childLayout=stackLayout;horizontal=1;startSize=26;fillColor=none;horizontalStack=0;resizeParent=1;resizeParentMax=0;resizeLast=0;collapsible=1;marginBottom=0;whiteSpace=wrap;html=1;" parent="1" vertex="1"><mxGeometry x="224" y="80" width="140" height="130" as="geometry"/></mxCell><mxCell id="URbUOaUxVpcEx-OwuukD-7" value="userId" style="text;strokeColor=none;fillColor=none;align=left;verticalAlign=top;spacingLeft=4;spacingRight=4;overflow=hidden;rotatable=0;points=[[0,0.5],[1,0.5]];portConstraint=eastwest;whiteSpace=wrap;html=1;" parent="URbUOaUxVpcEx-OwuukD-6" vertex="1"><mxGeometry y="26" width="140" height="26" as="geometry"/></mxCell><mxCell id="URbUOaUxVpcEx-OwuukD-9" value="username" style="text;strokeColor=none;fillColor=none;align=left;verticalAlign=top;spacingLeft=4;spacingRight=4;overflow=hidden;rotatable=0;points=[[0,0.5],[1,0.5]];portConstraint=eastwest;whiteSpace=wrap;html=1;" parent="URbUOaUxVpcEx-OwuukD-6" vertex="1"><mxGeometry y="52" width="140" height="26" as="geometry"/></mxCell><mxCell id="URbUOaUxVpcEx-OwuukD-11" value="password" style="text;strokeColor=none;fillColor=none;align=left;verticalAlign=top;spacingLeft=4;spacingRight=4;overflow=hidden;rotatable=0;points=[[0,0.5],[1,0.5]];portConstraint=eastwest;whiteSpace=wrap;html=1;" parent="URbUOaUxVpcEx-OwuukD-6" vertex="1"><mxGeometry y="78" width="140" height="26" as="geometry"/></mxCell><mxCell id="URbUOaUxVpcEx-OwuukD-12" value="roleId" style="text;strokeColor=none;fillColor=none;align=left;verticalAlign=top;spacingLeft=4;spacingRight=4;overflow=hidden;rotatable=0;points=[[0,0.5],[1,0.5]];portConstraint=eastwest;whiteSpace=wrap;html=1;" parent="URbUOaUxVpcEx-OwuukD-6" vertex="1"><mxGeometry y="104" width="140" height="26" as="geometry"/></mxCell><mxCell id="URbUOaUxVpcEx-OwuukD-16" value="" style="edgeStyle=entityRelationEdgeStyle;fontSize=12;html=1;endArrow=ERoneToMany;rounded=0;" parent="1" source="URbUOaUxVpcEx-OwuukD-2" target="URbUOaUxVpcEx-OwuukD-12" edge="1"><mxGeometry width="100" height="100" relative="1" as="geometry"><mxPoint x="344" y="310" as="sourcePoint"/><mxPoint x="444" y="210" as="targetPoint"/></mxGeometry></mxCell><mxCell id="URbUOaUxVpcEx-OwuukD-17" value="category" style="swimlane;fontStyle=0;childLayout=stackLayout;horizontal=1;startSize=26;fillColor=none;horizontalStack=0;resizeParent=1;resizeParentMax=0;resizeLast=0;collapsible=1;marginBottom=0;whiteSpace=wrap;html=1;" parent="1" vertex="1"><mxGeometry x="24" y="230" width="140" height="78" as="geometry"/></mxCell><mxCell id="URbUOaUxVpcEx-OwuukD-18" value="categoryId" style="text;strokeColor=none;fillColor=none;align=left;verticalAlign=top;spacingLeft=4;spacingRight=4;overflow=hidden;rotatable=0;points=[[0,0.5],[1,0.5]];portConstraint=eastwest;whiteSpace=wrap;html=1;" parent="URbUOaUxVpcEx-OwuukD-17" vertex="1"><mxGeometry y="26" width="140" height="26" as="geometry"/></mxCell><mxCell id="URbUOaUxVpcEx-OwuukD-19" value="categoryName" style="text;strokeColor=none;fillColor=none;align=left;verticalAlign=top;spacingLeft=4;spacingRight=4;overflow=hidden;rotatable=0;points=[[0,0.5],[1,0.5]];portConstraint=eastwest;whiteSpace=wrap;html=1;" parent="URbUOaUxVpcEx-OwuukD-17" vertex="1"><mxGeometry y="52" width="140" height="26" as="geometry"/></mxCell><mxCell id="URbUOaUxVpcEx-OwuukD-21" value="story" style="swimlane;fontStyle=0;childLayout=stackLayout;horizontal=1;startSize=26;fillColor=none;horizontalStack=0;resizeParent=1;resizeParentMax=0;resizeLast=0;collapsible=1;marginBottom=0;whiteSpace=wrap;html=1;" parent="1" vertex="1"><mxGeometry x="424" y="230" width="140" height="208" as="geometry"/></mxCell><mxCell id="URbUOaUxVpcEx-OwuukD-22" value="storyId" style="text;strokeColor=none;fillColor=none;align=left;verticalAlign=top;spacingLeft=4;spacingRight=4;overflow=hidden;rotatable=0;points=[[0,0.5],[1,0.5]];portConstraint=eastwest;whiteSpace=wrap;html=1;" parent="URbUOaUxVpcEx-OwuukD-21" vertex="1"><mxGeometry y="26" width="140" height="26" as="geometry"/></mxCell><mxCell id="URbUOaUxVpcEx-OwuukD-23" value="name" style="text;strokeColor=none;fillColor=none;align=left;verticalAlign=top;spacingLeft=4;spacingRight=4;overflow=hidden;rotatable=0;points=[[0,0.5],[1,0.5]];portConstraint=eastwest;whiteSpace=wrap;html=1;" parent="URbUOaUxVpcEx-OwuukD-21" vertex="1"><mxGeometry y="52" width="140" height="26" as="geometry"/></mxCell><mxCell id="URbUOaUxVpcEx-OwuukD-24" value="tacgia" style="text;strokeColor=none;fillColor=none;align=left;verticalAlign=top;spacingLeft=4;spacingRight=4;overflow=hidden;rotatable=0;points=[[0,0.5],[1,0.5]];portConstraint=eastwest;whiteSpace=wrap;html=1;" parent="URbUOaUxVpcEx-OwuukD-21" vertex="1"><mxGeometry y="78" width="140" height="26" as="geometry"/></mxCell><mxCell id="URbUOaUxVpcEx-OwuukD-42" value="nxb" style="text;strokeColor=none;fillColor=none;align=left;verticalAlign=top;spacingLeft=4;spacingRight=4;overflow=hidden;rotatable=0;points=[[0,0.5],[1,0.5]];portConstraint=eastwest;whiteSpace=wrap;html=1;" parent="URbUOaUxVpcEx-OwuukD-21" vertex="1"><mxGeometry y="104" width="140" height="26" as="geometry"/></mxCell><mxCell id="URbUOaUxVpcEx-OwuukD-43" value="soluong" style="text;strokeColor=none;fillColor=none;align=left;verticalAlign=top;spacingLeft=4;spacingRight=4;overflow=hidden;rotatable=0;points=[[0,0.5],[1,0.5]];portConstraint=eastwest;whiteSpace=wrap;html=1;" parent="URbUOaUxVpcEx-OwuukD-21" vertex="1"><mxGeometry y="130" width="140" height="26" as="geometry"/></mxCell><mxCell id="URbUOaUxVpcEx-OwuukD-44" value="mota" style="text;strokeColor=none;fillColor=none;align=left;verticalAlign=top;spacingLeft=4;spacingRight=4;overflow=hidden;rotatable=0;points=[[0,0.5],[1,0.5]];portConstraint=eastwest;whiteSpace=wrap;html=1;" parent="URbUOaUxVpcEx-OwuukD-21" vertex="1"><mxGeometry y="156" width="140" height="26" as="geometry"/></mxCell><mxCell id="URbUOaUxVpcEx-OwuukD-57" value="gia" style="text;strokeColor=none;fillColor=none;align=left;verticalAlign=top;spacingLeft=4;spacingRight=4;overflow=hidden;rotatable=0;points=[[0,0.5],[1,0.5]];portConstraint=eastwest;whiteSpace=wrap;html=1;" parent="URbUOaUxVpcEx-OwuukD-21" vertex="1"><mxGeometry y="182" width="140" height="26" as="geometry"/></mxCell><mxCell id="URbUOaUxVpcEx-OwuukD-25" value="category_detail" style="swimlane;fontStyle=0;childLayout=stackLayout;horizontal=1;startSize=26;fillColor=none;horizontalStack=0;resizeParent=1;resizeParentMax=0;resizeLast=0;collapsible=1;marginBottom=0;whiteSpace=wrap;html=1;" parent="1" vertex="1"><mxGeometry x="224" y="230" width="140" height="104" as="geometry"/></mxCell><mxCell id="URbUOaUxVpcEx-OwuukD-26" value="categoryDetailId" style="text;strokeColor=none;fillColor=none;align=left;verticalAlign=top;spacingLeft=4;spacingRight=4;overflow=hidden;rotatable=0;points=[[0,0.5],[1,0.5]];portConstraint=eastwest;whiteSpace=wrap;html=1;" parent="URbUOaUxVpcEx-OwuukD-25" vertex="1"><mxGeometry y="26" width="140" height="26" as="geometry"/></mxCell><mxCell id="URbUOaUxVpcEx-OwuukD-27" value="storyId" style="text;strokeColor=none;fillColor=none;align=left;verticalAlign=top;spacingLeft=4;spacingRight=4;overflow=hidden;rotatable=0;points=[[0,0.5],[1,0.5]];portConstraint=eastwest;whiteSpace=wrap;html=1;" parent="URbUOaUxVpcEx-OwuukD-25" vertex="1"><mxGeometry y="52" width="140" height="26" as="geometry"/></mxCell><mxCell id="URbUOaUxVpcEx-OwuukD-28" value="categoryId" style="text;strokeColor=none;fillColor=none;align=left;verticalAlign=top;spacingLeft=4;spacingRight=4;overflow=hidden;rotatable=0;points=[[0,0.5],[1,0.5]];portConstraint=eastwest;whiteSpace=wrap;html=1;" parent="URbUOaUxVpcEx-OwuukD-25" vertex="1"><mxGeometry y="78" width="140" height="26" as="geometry"/></mxCell><mxCell id="URbUOaUxVpcEx-OwuukD-29" value="" style="edgeStyle=entityRelationEdgeStyle;fontSize=12;html=1;endArrow=ERoneToMany;rounded=0;" parent="1" source="URbUOaUxVpcEx-OwuukD-18" target="URbUOaUxVpcEx-OwuukD-28" edge="1"><mxGeometry width="100" height="100" relative="1" as="geometry"><mxPoint x="344" y="410" as="sourcePoint"/><mxPoint x="444" y="310" as="targetPoint"/></mxGeometry></mxCell><mxCell id="URbUOaUxVpcEx-OwuukD-30" value="" style="edgeStyle=entityRelationEdgeStyle;fontSize=12;html=1;endArrow=ERoneToMany;rounded=0;" parent="1" source="URbUOaUxVpcEx-OwuukD-22" target="URbUOaUxVpcEx-OwuukD-27" edge="1"><mxGeometry width="100" height="100" relative="1" as="geometry"><mxPoint x="414" y="390" as="sourcePoint"/><mxPoint x="414" y="562" as="targetPoint"/></mxGeometry></mxCell><mxCell id="URbUOaUxVpcEx-OwuukD-35" value="sale" style="swimlane;fontStyle=0;childLayout=stackLayout;horizontal=1;startSize=26;fillColor=none;horizontalStack=0;resizeParent=1;resizeParentMax=0;resizeLast=0;collapsible=1;marginBottom=0;whiteSpace=wrap;html=1;" parent="1" vertex="1"><mxGeometry x="664" y="230" width="140" height="156" as="geometry"/></mxCell><mxCell id="URbUOaUxVpcEx-OwuukD-36" value="saleId" style="text;strokeColor=none;fillColor=none;align=left;verticalAlign=top;spacingLeft=4;spacingRight=4;overflow=hidden;rotatable=0;points=[[0,0.5],[1,0.5]];portConstraint=eastwest;whiteSpace=wrap;html=1;" parent="URbUOaUxVpcEx-OwuukD-35" vertex="1"><mxGeometry y="26" width="140" height="26" as="geometry"/></mxCell><mxCell id="URbUOaUxVpcEx-OwuukD-37" value="storyId" style="text;strokeColor=none;fillColor=none;align=left;verticalAlign=top;spacingLeft=4;spacingRight=4;overflow=hidden;rotatable=0;points=[[0,0.5],[1,0.5]];portConstraint=eastwest;whiteSpace=wrap;html=1;" parent="URbUOaUxVpcEx-OwuukD-35" vertex="1"><mxGeometry y="52" width="140" height="26" as="geometry"/></mxCell><mxCell id="URbUOaUxVpcEx-OwuukD-38" value="saleStart" style="text;strokeColor=none;fillColor=none;align=left;verticalAlign=top;spacingLeft=4;spacingRight=4;overflow=hidden;rotatable=0;points=[[0,0.5],[1,0.5]];portConstraint=eastwest;whiteSpace=wrap;html=1;" parent="URbUOaUxVpcEx-OwuukD-35" vertex="1"><mxGeometry y="78" width="140" height="26" as="geometry"/></mxCell><mxCell id="URbUOaUxVpcEx-OwuukD-39" value="saleEnd" style="text;strokeColor=none;fillColor=none;align=left;verticalAlign=top;spacingLeft=4;spacingRight=4;overflow=hidden;rotatable=0;points=[[0,0.5],[1,0.5]];portConstraint=eastwest;whiteSpace=wrap;html=1;" parent="URbUOaUxVpcEx-OwuukD-35" vertex="1"><mxGeometry y="104" width="140" height="26" as="geometry"/></mxCell><mxCell id="URbUOaUxVpcEx-OwuukD-40" value="discount" style="text;strokeColor=none;fillColor=none;align=left;verticalAlign=top;spacingLeft=4;spacingRight=4;overflow=hidden;rotatable=0;points=[[0,0.5],[1,0.5]];portConstraint=eastwest;whiteSpace=wrap;html=1;" parent="URbUOaUxVpcEx-OwuukD-35" vertex="1"><mxGeometry y="130" width="140" height="26" as="geometry"/></mxCell><mxCell id="URbUOaUxVpcEx-OwuukD-41" value="" style="edgeStyle=entityRelationEdgeStyle;fontSize=12;html=1;endArrow=ERoneToMany;rounded=0;" parent="1" source="URbUOaUxVpcEx-OwuukD-22" target="URbUOaUxVpcEx-OwuukD-37" edge="1"><mxGeometry width="100" height="100" relative="1" as="geometry"><mxPoint x="554" y="460" as="sourcePoint"/><mxPoint x="494" y="486" as="targetPoint"/></mxGeometry></mxCell><mxCell id="URbUOaUxVpcEx-OwuukD-45" value="nhap" style="swimlane;fontStyle=0;childLayout=stackLayout;horizontal=1;startSize=26;fillColor=none;horizontalStack=0;resizeParent=1;resizeParentMax=0;resizeLast=0;collapsible=1;marginBottom=0;whiteSpace=wrap;html=1;" parent="1" vertex="1"><mxGeometry x="424" y="80" width="140" height="104" as="geometry"/></mxCell><mxCell id="URbUOaUxVpcEx-OwuukD-46" value="nhapId" style="text;strokeColor=none;fillColor=none;align=left;verticalAlign=top;spacingLeft=4;spacingRight=4;overflow=hidden;rotatable=0;points=[[0,0.5],[1,0.5]];portConstraint=eastwest;whiteSpace=wrap;html=1;" parent="URbUOaUxVpcEx-OwuukD-45" vertex="1"><mxGeometry y="26" width="140" height="26" as="geometry"/></mxCell><mxCell id="URbUOaUxVpcEx-OwuukD-47" value="ngayNhap" style="text;strokeColor=none;fillColor=none;align=left;verticalAlign=top;spacingLeft=4;spacingRight=4;overflow=hidden;rotatable=0;points=[[0,0.5],[1,0.5]];portConstraint=eastwest;whiteSpace=wrap;html=1;" parent="URbUOaUxVpcEx-OwuukD-45" vertex="1"><mxGeometry y="52" width="140" height="26" as="geometry"/></mxCell><mxCell id="URbUOaUxVpcEx-OwuukD-67" value="userId" style="text;strokeColor=none;fillColor=none;align=left;verticalAlign=top;spacingLeft=4;spacingRight=4;overflow=hidden;rotatable=0;points=[[0,0.5],[1,0.5]];portConstraint=eastwest;whiteSpace=wrap;html=1;" parent="URbUOaUxVpcEx-OwuukD-45" vertex="1"><mxGeometry y="78" width="140" height="26" as="geometry"/></mxCell><mxCell id="URbUOaUxVpcEx-OwuukD-49" value="xuat" style="swimlane;fontStyle=0;childLayout=stackLayout;horizontal=1;startSize=26;fillColor=none;horizontalStack=0;resizeParent=1;resizeParentMax=0;resizeLast=0;collapsible=1;marginBottom=0;whiteSpace=wrap;html=1;" parent="1" vertex="1"><mxGeometry x="424" y="-106" width="140" height="156" as="geometry"/></mxCell><mxCell id="URbUOaUxVpcEx-OwuukD-50" value="xuatId" style="text;strokeColor=none;fillColor=none;align=left;verticalAlign=top;spacingLeft=4;spacingRight=4;overflow=hidden;rotatable=0;points=[[0,0.5],[1,0.5]];portConstraint=eastwest;whiteSpace=wrap;html=1;" parent="URbUOaUxVpcEx-OwuukD-49" vertex="1"><mxGeometry y="26" width="140" height="26" as="geometry"/></mxCell><mxCell id="URbUOaUxVpcEx-OwuukD-51" value="ngayxuat" style="text;strokeColor=none;fillColor=none;align=left;verticalAlign=top;spacingLeft=4;spacingRight=4;overflow=hidden;rotatable=0;points=[[0,0.5],[1,0.5]];portConstraint=eastwest;whiteSpace=wrap;html=1;" parent="URbUOaUxVpcEx-OwuukD-49" vertex="1"><mxGeometry y="52" width="140" height="26" as="geometry"/></mxCell><mxCell id="URbUOaUxVpcEx-OwuukD-52" value="userId" style="text;strokeColor=none;fillColor=none;align=left;verticalAlign=top;spacingLeft=4;spacingRight=4;overflow=hidden;rotatable=0;points=[[0,0.5],[1,0.5]];portConstraint=eastwest;whiteSpace=wrap;html=1;" parent="URbUOaUxVpcEx-OwuukD-49" vertex="1"><mxGeometry y="78" width="140" height="26" as="geometry"/></mxCell><mxCell id="URbUOaUxVpcEx-OwuukD-69" value="trangThai" style="text;strokeColor=none;fillColor=none;align=left;verticalAlign=top;spacingLeft=4;spacingRight=4;overflow=hidden;rotatable=0;points=[[0,0.5],[1,0.5]];portConstraint=eastwest;whiteSpace=wrap;html=1;" parent="URbUOaUxVpcEx-OwuukD-49" vertex="1"><mxGeometry y="104" width="140" height="26" as="geometry"/></mxCell><mxCell id="URbUOaUxVpcEx-OwuukD-78" value="tongTien" style="text;strokeColor=none;fillColor=none;align=left;verticalAlign=top;spacingLeft=4;spacingRight=4;overflow=hidden;rotatable=0;points=[[0,0.5],[1,0.5]];portConstraint=eastwest;whiteSpace=wrap;html=1;" parent="URbUOaUxVpcEx-OwuukD-49" vertex="1"><mxGeometry y="130" width="140" height="26" as="geometry"/></mxCell><mxCell id="URbUOaUxVpcEx-OwuukD-53" value="chiTietNhap" style="swimlane;fontStyle=0;childLayout=stackLayout;horizontal=1;startSize=26;fillColor=none;horizontalStack=0;resizeParent=1;resizeParentMax=0;resizeLast=0;collapsible=1;marginBottom=0;whiteSpace=wrap;html=1;" parent="1" vertex="1"><mxGeometry x="664" y="80" width="140" height="130" as="geometry"/></mxCell><mxCell id="URbUOaUxVpcEx-OwuukD-54" value="chiTietNhapId" style="text;strokeColor=none;fillColor=none;align=left;verticalAlign=top;spacingLeft=4;spacingRight=4;overflow=hidden;rotatable=0;points=[[0,0.5],[1,0.5]];portConstraint=eastwest;whiteSpace=wrap;html=1;" parent="URbUOaUxVpcEx-OwuukD-53" vertex="1"><mxGeometry y="26" width="140" height="26" as="geometry"/></mxCell><mxCell id="URbUOaUxVpcEx-OwuukD-55" value="nhapId" style="text;strokeColor=none;fillColor=none;align=left;verticalAlign=top;spacingLeft=4;spacingRight=4;overflow=hidden;rotatable=0;points=[[0,0.5],[1,0.5]];portConstraint=eastwest;whiteSpace=wrap;html=1;" parent="URbUOaUxVpcEx-OwuukD-53" vertex="1"><mxGeometry y="52" width="140" height="26" as="geometry"/></mxCell><mxCell id="URbUOaUxVpcEx-OwuukD-59" value="storyId" style="text;strokeColor=none;fillColor=none;align=left;verticalAlign=top;spacingLeft=4;spacingRight=4;overflow=hidden;rotatable=0;points=[[0,0.5],[1,0.5]];portConstraint=eastwest;whiteSpace=wrap;html=1;" parent="URbUOaUxVpcEx-OwuukD-53" vertex="1"><mxGeometry y="78" width="140" height="26" as="geometry"/></mxCell><mxCell id="URbUOaUxVpcEx-OwuukD-62" value="soluong" style="text;strokeColor=none;fillColor=none;align=left;verticalAlign=top;spacingLeft=4;spacingRight=4;overflow=hidden;rotatable=0;points=[[0,0.5],[1,0.5]];portConstraint=eastwest;whiteSpace=wrap;html=1;" parent="URbUOaUxVpcEx-OwuukD-53" vertex="1"><mxGeometry y="104" width="140" height="26" as="geometry"/></mxCell><mxCell id="URbUOaUxVpcEx-OwuukD-58" value="" style="edgeStyle=entityRelationEdgeStyle;fontSize=12;html=1;endArrow=ERoneToMany;rounded=0;" parent="1" source="URbUOaUxVpcEx-OwuukD-46" target="URbUOaUxVpcEx-OwuukD-55" edge="1"><mxGeometry width="100" height="100" relative="1" as="geometry"><mxPoint x="344" y="590" as="sourcePoint"/><mxPoint x="384" y="610" as="targetPoint"/></mxGeometry></mxCell><mxCell id="URbUOaUxVpcEx-OwuukD-66" value="" style="edgeStyle=entityRelationEdgeStyle;fontSize=12;html=1;endArrow=ERoneToMany;rounded=0;" parent="1" source="URbUOaUxVpcEx-OwuukD-22" target="URbUOaUxVpcEx-OwuukD-59" edge="1"><mxGeometry width="100" height="100" relative="1" as="geometry"><mxPoint x="504" y="380" as="sourcePoint"/><mxPoint x="234" y="752" as="targetPoint"/></mxGeometry></mxCell><mxCell id="URbUOaUxVpcEx-OwuukD-68" value="" style="edgeStyle=entityRelationEdgeStyle;fontSize=12;html=1;endArrow=ERoneToMany;rounded=0;" parent="1" source="URbUOaUxVpcEx-OwuukD-7" target="URbUOaUxVpcEx-OwuukD-67" edge="1"><mxGeometry width="100" height="100" relative="1" as="geometry"><mxPoint x="164" y="170" as="sourcePoint"/><mxPoint x="254" y="248" as="targetPoint"/></mxGeometry></mxCell><mxCell id="URbUOaUxVpcEx-OwuukD-70" value="chiTietXuat" style="swimlane;fontStyle=0;childLayout=stackLayout;horizontal=1;startSize=26;fillColor=none;horizontalStack=0;resizeParent=1;resizeParentMax=0;resizeLast=0;collapsible=1;marginBottom=0;whiteSpace=wrap;html=1;" parent="1" vertex="1"><mxGeometry x="664" y="-106" width="140" height="156" as="geometry"/></mxCell><mxCell id="URbUOaUxVpcEx-OwuukD-71" value="chiTietXuatId" style="text;strokeColor=none;fillColor=none;align=left;verticalAlign=top;spacingLeft=4;spacingRight=4;overflow=hidden;rotatable=0;points=[[0,0.5],[1,0.5]];portConstraint=eastwest;whiteSpace=wrap;html=1;" parent="URbUOaUxVpcEx-OwuukD-70" vertex="1"><mxGeometry y="26" width="140" height="26" as="geometry"/></mxCell><mxCell id="URbUOaUxVpcEx-OwuukD-72" value="xuatId" style="text;strokeColor=none;fillColor=none;align=left;verticalAlign=top;spacingLeft=4;spacingRight=4;overflow=hidden;rotatable=0;points=[[0,0.5],[1,0.5]];portConstraint=eastwest;whiteSpace=wrap;html=1;" parent="URbUOaUxVpcEx-OwuukD-70" vertex="1"><mxGeometry y="52" width="140" height="26" as="geometry"/></mxCell><mxCell id="URbUOaUxVpcEx-OwuukD-73" value="storyId" style="text;strokeColor=none;fillColor=none;align=left;verticalAlign=top;spacingLeft=4;spacingRight=4;overflow=hidden;rotatable=0;points=[[0,0.5],[1,0.5]];portConstraint=eastwest;whiteSpace=wrap;html=1;" parent="URbUOaUxVpcEx-OwuukD-70" vertex="1"><mxGeometry y="78" width="140" height="26" as="geometry"/></mxCell><mxCell id="URbUOaUxVpcEx-OwuukD-74" value="soluong" style="text;strokeColor=none;fillColor=none;align=left;verticalAlign=top;spacingLeft=4;spacingRight=4;overflow=hidden;rotatable=0;points=[[0,0.5],[1,0.5]];portConstraint=eastwest;whiteSpace=wrap;html=1;" parent="URbUOaUxVpcEx-OwuukD-70" vertex="1"><mxGeometry y="104" width="140" height="26" as="geometry"/></mxCell><mxCell id="URbUOaUxVpcEx-OwuukD-79" value="giaBan" style="text;strokeColor=none;fillColor=none;align=left;verticalAlign=top;spacingLeft=4;spacingRight=4;overflow=hidden;rotatable=0;points=[[0,0.5],[1,0.5]];portConstraint=eastwest;whiteSpace=wrap;html=1;" parent="URbUOaUxVpcEx-OwuukD-70" vertex="1"><mxGeometry y="130" width="140" height="26" as="geometry"/></mxCell><mxCell id="URbUOaUxVpcEx-OwuukD-75" value="" style="edgeStyle=entityRelationEdgeStyle;fontSize=12;html=1;endArrow=ERoneToMany;rounded=0;" parent="1" source="URbUOaUxVpcEx-OwuukD-50" target="URbUOaUxVpcEx-OwuukD-72" edge="1"><mxGeometry width="100" height="100" relative="1" as="geometry"><mxPoint x="321" y="470" as="sourcePoint"/><mxPoint x="421" y="370" as="targetPoint"/></mxGeometry></mxCell><mxCell id="URbUOaUxVpcEx-OwuukD-76" value="" style="edgeStyle=entityRelationEdgeStyle;fontSize=12;html=1;endArrow=ERoneToMany;rounded=0;" parent="1" source="URbUOaUxVpcEx-OwuukD-22" target="URbUOaUxVpcEx-OwuukD-73" edge="1"><mxGeometry width="100" height="100" relative="1" as="geometry"><mxPoint x="614" y="570" as="sourcePoint"/><mxPoint x="614" y="766" as="targetPoint"/></mxGeometry></mxCell><mxCell id="URbUOaUxVpcEx-OwuukD-77" value="" style="edgeStyle=entityRelationEdgeStyle;fontSize=12;html=1;endArrow=ERoneToMany;rounded=0;" parent="1" source="URbUOaUxVpcEx-OwuukD-7" target="URbUOaUxVpcEx-OwuukD-52" edge="1"><mxGeometry width="100" height="100" relative="1" as="geometry"><mxPoint x="674" y="577" as="sourcePoint"/><mxPoint x="674" y="773" as="targetPoint"/></mxGeometry></mxCell></root></mxGraphModel></diagram></mxfile>